<svg xmlns="http://www.w3.org/2000/svg" viewBox="0 0 400 400" fill="none">
  <g stroke="#5b6b52" stroke-width="1.6" stroke-linecap="round" opacity="0.9">
    <path d="M40 380 C 90 300, 120 260, 150 190 S 220 60, 300 20" />
    <path d="M150 190 C 130 170, 105 160, 78 165" />
    <path d="M150 190 C 165 172, 188 165, 210 172" />
    <path d="M190 120 C 172 104, 150 96, 128 100" />
    <path d="M190 120 C 205 104, 225 98, 246 104" />
    <path d="M245 65 C 230 52, 212 46, 194 50" />
    <path d="M245 65 C 258 50, 276 44, 294 50" />
  </g>
  <g fill="#5b6b52">
    <ellipse cx="78" cy="165" rx="15" ry="7" transform="rotate(-28 78 165)" opacity="0.85"/>
    <ellipse cx="210" cy="172" rx="15" ry="7" transform="rotate(24 210 172)" opacity="0.85"/>
    <ellipse cx="128" cy="100" rx="13" ry="6" transform="rotate(-24 128 100)" opacity="0.75"/>
    <ellipse cx="246" cy="104" rx="13" ry="6" transform="rotate(22 246 104)" opacity="0.75"/>
    <ellipse cx="194" cy="50" rx="11" ry="5" transform="rotate(-20 194 50)" opacity="0.65"/>
    <ellipse cx="294" cy="50" rx="11" ry="5" transform="rotate(20 294 50)" opacity="0.65"/>
    <circle cx="300" cy="20" r="4" opacity="0.7"/>
  </g>
</svg>
